<svg width="48" height="48" viewBox="0 0 48 48" fill="none" xmlns="http://www.w3.org/2000/svg">
<path d="M24.0004 12.7279L26.3764 10.3436C30.3275 6.37874 36.4534 6.25816 40.5389 10.0648V10.0648C45.1367 14.3487 45.3754 21.8897 41.0589 26.4948L36.2402 31.6355L26.5355 40.6299C25.0807 41.9783 22.9174 41.9787 21.4622 40.6307L18.2222 37.6297" stroke="#4678FF" stroke-width="3" stroke-linecap="round"/>
<path d="M23.9989 12.7279L21.6237 10.3442C17.6728 6.37909 11.5468 6.25831 7.46117 10.065V10.065C2.86348 14.3488 2.62484 21.8896 6.94123 26.4945L11.7601 31.6355L21.4631 40.6299C22.9178 41.9783 25.0809 41.9789 26.5362 40.6314L29.7779 37.6297" stroke="#4678FF" stroke-width="3" stroke-linecap="round"/>
</svg>
