<svg width="315" height="51" viewBox="0 0 315 51" fill="none" xmlns="http://www.w3.org/2000/svg">
<rect width="315" height="51" rx="25.5" fill="#5D5FEF"/>
<path d="M86.3701 15.2383C86.3613 20.0371 85.0518 24.1592 79.1982 27.0684L78.126 25.5918C80.877 24.2383 82.5205 22.6475 83.4434 20.7666L78.4951 21.2324L78.249 19.5449L84.0322 19.1846C84.2344 18.4375 84.3662 17.6553 84.4277 16.8203H79.0752V15.2383H86.3701ZM88.6025 29.5293V13.6738H90.5537V19.8965H92.9092V21.4961H90.5537V29.5293H88.6025ZM101.927 15.2383C101.918 20.0371 100.608 24.1592 94.7549 27.0684L93.6826 25.5918C96.4336 24.2383 98.0771 22.6475 99 20.7666L94.0518 21.2324L93.8057 19.5449L99.5889 19.1846C99.791 18.4375 99.9229 17.6553 99.9844 16.8203H94.6318V15.2383H101.927ZM104.159 29.5293V13.6738H106.11V19.8965H108.466V21.4961H106.11V29.5293H104.159ZM116.446 14.5703C119.856 14.5791 122.379 16.2754 122.37 18.8594C122.379 21.2412 120.331 22.832 117.413 23.1221V26.0312H123.741V27.6309H109.222V26.0312H115.479V23.1221C112.597 22.832 110.549 21.2412 110.558 18.8594C110.549 16.2754 113.062 14.5791 116.446 14.5703ZM112.474 18.8594C112.465 20.5732 114.126 21.6016 116.446 21.6016C118.802 21.6016 120.454 20.5732 120.454 18.8594C120.454 17.1982 118.802 16.1436 116.446 16.1523C114.126 16.1436 112.465 17.1982 112.474 18.8594ZM139.263 22.1465V23.6934H124.743V22.1465H131.019V20.8105H126.606V14.0605H137.522V15.5898H128.558V16.6797H137.136V18.1387H128.558V19.3164H137.646V20.8105H132.97V22.1465H139.263ZM126.378 26.3652V24.8184H137.435V29.5645H135.466V26.3652H126.378ZM147.56 14.5703C150.908 14.5703 153.492 16.3545 153.483 19.0527C153.492 21.7861 150.908 23.5703 147.56 23.5703C144.229 23.5703 141.662 21.7861 141.671 19.0527C141.662 16.3545 144.229 14.5703 147.56 14.5703ZM140.335 27.5605V25.9609H154.854V27.5605H140.335ZM143.552 19.0527C143.543 20.8545 145.248 21.9619 147.56 21.9707C149.88 21.9619 151.567 20.8545 151.567 19.0527C151.567 17.2949 149.88 16.1348 147.56 16.1523C145.248 16.1348 143.543 17.2949 143.552 19.0527ZM170.411 26.1016V27.7188H155.892V26.1016H162.149V23.5176H157.614V18.3145H166.755V16.3457H157.579V14.7637H168.688V19.8613H159.565V21.918H169.058V23.5176H164.083V26.1016H170.411ZM182.874 23.6055C186.328 23.6143 188.508 24.7041 188.517 26.5938C188.508 28.4395 186.328 29.5469 182.874 29.5469C179.455 29.5469 177.249 28.4395 177.249 26.5938C177.249 24.7041 179.455 23.6143 182.874 23.6055ZM175.755 22.4629V20.8809H181.345V17.998H183.278V20.8809H190.169V22.4629H175.755ZM177.407 15.9766V14.4297H188.411V15.748C188.42 17.0049 188.42 18.3408 187.972 19.9668L186.038 19.791C186.434 18.2529 186.46 17.1279 186.46 15.9766H177.407ZM179.218 26.5938C179.2 27.5254 180.58 28.0352 182.874 28.0352C185.177 28.0352 186.565 27.5254 186.583 26.5938C186.565 25.627 185.177 25.082 182.874 25.082C180.58 25.082 179.2 25.627 179.218 26.5938ZM205.778 22.5859V24.168H202.245V29.5645H200.259V24.168H196.743V29.5645H194.739V24.168H191.259V22.5859H205.778ZM192.788 17.7871C192.779 15.625 195.1 14.2451 198.483 14.2363C201.867 14.2451 204.205 15.625 204.214 17.7871C204.205 19.9229 201.867 21.2676 198.483 21.2676C195.1 21.2676 192.779 19.9229 192.788 17.7871ZM194.792 17.7871C194.783 19 196.242 19.7119 198.483 19.7207C200.733 19.7119 202.192 19 202.192 17.7871C202.192 16.5391 200.733 15.8184 198.483 15.8184C196.242 15.8184 194.783 16.5391 194.792 17.7871ZM219.278 13.6738V20.002H221.722V21.6191H219.278V29.5645H217.345V13.6738H219.278ZM206.745 17.6816V16.1172H210.507V13.9023H212.458V16.1172H216.114V17.6816H206.745ZM207.483 22.4629C207.466 20.2656 209.171 18.71 211.491 18.7188C213.776 18.71 215.473 20.2656 215.481 22.4629C215.473 24.6514 213.776 26.1895 211.491 26.1895C209.171 26.1895 207.466 24.6514 207.483 22.4629ZM209.347 22.4629C209.338 23.7549 210.243 24.5811 211.491 24.5723C212.713 24.5811 213.601 23.7549 213.618 22.4629C213.601 21.1709 212.713 20.3184 211.491 20.3184C210.243 20.3184 209.338 21.1709 209.347 22.4629ZM235.661 13.6738V29.5645H233.692V13.6738H235.661ZM222.495 25.1875C226.661 23.21 228.577 20.5205 228.929 16.9082H223.304V15.3613H230.915C230.915 20.0898 229.078 24.1064 223.515 26.752L222.495 25.1875Z" fill="white"/>
</svg>
