<svg width="30" height="46" viewBox="0 0 30 46" fill="none" xmlns="http://www.w3.org/2000/svg">
<path d="M25.9512 22.5252L25.9517 22.5245C27.5882 19.9767 28.0698 17.6665 27.7436 15.537C27.4237 13.4481 26.3484 11.6894 25.1792 10.1874C24.5921 9.43323 23.9608 8.71869 23.3662 8.05103C23.3214 8.00072 23.2768 7.95072 23.2325 7.90101C22.6797 7.28054 22.167 6.70525 21.714 6.13809C20.7089 4.87997 20.2 3.89892 20.2 3V1.8H19H15H13.8V3V30.3063C13.0764 30.1355 12.1418 30 11 30C6.47067 30 1.8 32.8507 1.8 38C1.8 39.998 2.6415 41.5986 4.02146 42.6697C5.36802 43.7149 7.14818 44.2 9 44.2C16.1202 44.2 20.1959 39.0434 20.196 35.0002C20.196 35.0001 20.196 35.0001 20.196 35L20.1997 13.5563C21.4976 14.2048 22.2445 15.4144 22.6488 16.8238C23.1977 18.7379 23.0158 20.751 22.7653 21.4914L22.7645 21.4938C22.6581 21.8104 22.5988 22.1792 22.6517 22.5473C22.6982 22.8714 22.8956 23.5107 23.587 23.7718C24.2656 24.0281 24.8441 23.6972 25.1178 23.4875C25.4294 23.2488 25.7037 22.9101 25.9512 22.5252ZM25.0306 22.292C25.0305 22.2921 25.0306 22.2907 25.0312 22.2878C25.0309 22.2906 25.0306 22.292 25.0306 22.292Z" stroke="#4678FF" stroke-width="2.4"/>
</svg>
