<svg width="43" height="41" viewBox="0 0 43 41" fill="none" xmlns="http://www.w3.org/2000/svg">
<ellipse cx="21.422" cy="20.478" rx="21.0322" ry="20.0691" transform="rotate(178.875 21.422 20.478)" fill="#8DADFF"/>
<path d="M12.6779 19.3049C12.4898 19.4918 12.3837 19.7458 12.3828 20.011C12.3819 20.2761 12.4864 20.5308 12.6732 20.7189L18.3115 26.3946C18.4035 26.4904 18.5136 26.5669 18.6354 26.6197C18.7572 26.6725 18.8884 26.7006 19.0211 26.7021C19.1539 26.7037 19.2857 26.6789 19.4087 26.629C19.5318 26.5791 19.6437 26.5052 19.7379 26.4117C19.8321 26.3181 19.9067 26.2067 19.9574 26.0839C20.0081 25.9612 20.0338 25.8296 20.0331 25.6968C20.0324 25.564 20.0052 25.4327 19.9532 25.3106C19.9012 25.1884 19.8254 25.0778 19.7302 24.9852L15.7933 21.0222L29.0362 21.0659C29.3014 21.0668 29.5561 20.9623 29.7443 20.7754C29.9324 20.5884 30.0386 20.3344 30.0395 20.0692C30.0404 19.804 29.9358 19.5493 29.7489 19.3612C29.562 19.173 29.308 19.0668 29.0428 19.0659L15.7999 19.0222L19.7629 15.0853C19.9456 14.8973 20.0473 14.645 20.0459 14.3828C20.0445 14.1206 19.9401 13.8695 19.7553 13.6834C19.5705 13.4974 19.3201 13.3914 19.0579 13.3883C18.7957 13.3851 18.5427 13.4851 18.3535 13.6666L12.6779 19.3049Z" fill="white"/>
</svg>
