<svg width="123" height="67" viewBox="0 0 123 67" fill="none" xmlns="http://www.w3.org/2000/svg">
<path d="M33.4283 17.1277L25.3919 34.7867C24.6869 35.9499 23.7705 36.5315 22.6426 36.5315H19.4174C18.8182 36.5315 18.2895 36.3729 17.8313 36.0556C17.4083 35.7032 17.0558 35.245 16.7739 34.681C15.3992 31.685 14.0422 28.7594 12.7028 25.9044C11.3634 23.0493 10.0063 20.1061 8.63168 17.0749V50.6481C8.63168 52.199 7.85624 52.9745 6.30535 52.9745H2.44574C0.894852 52.9745 0.119406 52.1638 0.119406 50.5424V2.74673C0.119406 1.19584 1.01822 0.420396 2.81584 0.420396H6.88693C8.22634 0.420396 9.17802 0.86099 9.74198 1.74218L21.1093 25.9572L32.4766 1.68931C32.9349 0.843366 33.7808 0.420396 35.0145 0.420396H39.3499C41.1475 0.420396 42.0463 1.21347 42.0463 2.7996V50.5952C42.0463 52.1814 41.2709 52.9745 39.72 52.9745H35.8075C34.2566 52.9745 33.4812 52.2519 33.4812 50.8067H33.5341L33.4283 17.1277ZM77.7353 12.3164C79.0042 12.3164 79.6386 12.9861 79.6386 14.3255V53.6089C79.6386 62.4913 75.1975 66.9325 66.3151 66.9325C59.9705 66.9325 55.4588 65.8222 52.78 63.6016C51.8284 62.6499 51.7755 61.804 52.6214 61.0638L56.3753 58.0501C57.2212 57.4509 58.0848 57.4509 58.966 58.0501C59.6357 58.4378 60.5521 58.755 61.7153 59.0018C62.8784 59.2485 64.2531 59.3719 65.8392 59.3719C69.8222 59.3719 71.8137 57.5566 71.8137 53.9261V49.5378C69.4169 51.9347 66.7909 53.1331 63.9359 53.1331C54.6658 53.1331 50.0307 46.0131 50.0307 31.7731V14.1141C50.0307 12.9156 50.5771 12.3164 51.6697 12.3164H56.481C57.6089 12.3164 58.1729 12.9156 58.1729 14.1141V31.8788C58.1729 40.9022 60.2349 45.4139 64.3588 45.4139C67.8131 45.4139 70.2981 43.8982 71.8137 40.8669L71.7608 40.9727V14.2198C71.7608 12.9509 72.3424 12.3164 73.5056 12.3164H77.7353ZM104.737 39.8624L104.79 39.9152C106.905 35.0511 108.703 29.5349 110.183 23.3665C111.699 17.1982 112.897 10.2897 113.778 2.64099C113.954 1.19584 114.748 0.473267 116.157 0.473267H120.969C122.167 0.473267 122.713 1.12535 122.608 2.4295C121.727 10.2545 120.105 18.3261 117.744 26.6446C115.382 34.963 112.421 43.1756 108.861 51.2826C108.297 52.481 107.487 53.0802 106.429 53.0802H102.887C101.794 53.0802 100.983 52.5515 100.455 51.4941C96.8242 43.2814 93.8634 35.0158 91.5723 26.6974C89.3164 18.379 87.7303 10.2897 86.8139 2.4295C86.7434 1.8303 86.8139 1.35446 87.0253 1.00198C87.2721 0.649504 87.695 0.473267 88.2943 0.473267H93.2113C94.5859 0.473267 95.3614 1.19584 95.5376 2.64099C97.3352 17.7974 100.402 30.2222 104.737 39.9152V39.8624Z" fill="url(#paint0_linear_177_486)"/>
<defs>
<linearGradient id="paint0_linear_177_486" x1="-5.51491" y1="-11" x2="180.797" y2="25.4965" gradientUnits="userSpaceOnUse">
<stop stop-color="#1400FF"/>
<stop offset="0.473958" stop-color="#6FBEF8"/>
<stop offset="0.780521" stop-color="#53CDE8"/>
</linearGradient>
</defs>
</svg>
