<svg width="279" height="15" viewBox="0 0 279 15" fill="none" xmlns="http://www.w3.org/2000/svg">
<g opacity="0.2">
<rect x="2" width="1" height="4" rx="0.5" fill="black"/>
<path d="M2.5 14.0795C2.07197 14.0795 1.70739 13.9631 1.40625 13.7301C1.10511 13.4953 0.875 13.1553 0.715909 12.7102C0.556818 12.2633 0.477273 11.7235 0.477273 11.0909C0.477273 10.4621 0.556818 9.92519 0.715909 9.48011C0.876894 9.03314 1.10795 8.69223 1.40909 8.45739C1.71212 8.22064 2.07576 8.10227 2.5 8.10227C2.92424 8.10227 3.28693 8.22064 3.58807 8.45739C3.8911 8.69223 4.12216 9.03314 4.28125 9.48011C4.44223 9.92519 4.52273 10.4621 4.52273 11.0909C4.52273 11.7235 4.44318 12.2633 4.28409 12.7102C4.125 13.1553 3.89489 13.4953 3.59375 13.7301C3.29261 13.9631 2.92803 14.0795 2.5 14.0795ZM2.5 13.4545C2.92424 13.4545 3.25379 13.25 3.48864 12.8409C3.72348 12.4318 3.84091 11.8485 3.84091 11.0909C3.84091 10.5871 3.78693 10.1581 3.67898 9.80398C3.57292 9.44981 3.41951 9.17992 3.21875 8.99432C3.01989 8.80871 2.7803 8.71591 2.5 8.71591C2.07955 8.71591 1.75095 8.9233 1.5142 9.33807C1.27746 9.75095 1.15909 10.3352 1.15909 11.0909C1.15909 11.5947 1.21212 12.0227 1.31818 12.375C1.42424 12.7273 1.5767 12.9953 1.77557 13.179C1.97633 13.3627 2.2178 13.4545 2.5 13.4545Z" fill="black"/>
</g>
<g opacity="0.2">
<rect x="29.2" width="1" height="4" rx="0.5" fill="black"/>
</g>
<g opacity="0.2">
<rect x="56.4" width="1" height="4" rx="0.5" fill="black"/>
<path d="M56.0804 14V13.4886L58.0009 11.3864C58.2262 11.1402 58.4118 10.9261 58.5577 10.7443C58.7035 10.5606 58.8115 10.3883 58.8815 10.2273C58.9535 10.0644 58.9895 9.89394 58.9895 9.71591C58.9895 9.51136 58.9402 9.33428 58.8418 9.18466C58.7452 9.03504 58.6126 8.91951 58.444 8.83807C58.2755 8.75663 58.0861 8.71591 57.8759 8.71591C57.6524 8.71591 57.4573 8.76231 57.2906 8.85511C57.1259 8.94602 56.998 9.07386 56.9071 9.23864C56.8181 9.40341 56.7736 9.59659 56.7736 9.81818H56.1031C56.1031 9.47727 56.1817 9.17803 56.3389 8.92045C56.4961 8.66288 56.7101 8.46212 56.981 8.31818C57.2537 8.17424 57.5596 8.10227 57.8986 8.10227C58.2395 8.10227 58.5416 8.17424 58.8048 8.31818C59.0681 8.46212 59.2745 8.65625 59.4241 8.90057C59.5738 9.14489 59.6486 9.41667 59.6486 9.71591C59.6486 9.92992 59.6098 10.1392 59.5321 10.3438C59.4563 10.5464 59.3238 10.7727 59.1344 11.0227C58.9469 11.2708 58.6865 11.5739 58.3531 11.9318L57.0463 13.3295V13.375H59.7509V14H56.0804Z" fill="black"/>
</g>
<g opacity="0.2">
<rect x="83.6" width="1" height="4" rx="0.5" fill="black"/>
</g>
<g opacity="0.2">
<rect x="110.8" width="1" height="4" rx="0.5" fill="black"/>
<path d="M109.7 12.8068V12.2273L112.256 8.18182H112.677V9.07955H112.393L110.461 12.1364V12.1818H113.904V12.8068H109.7ZM112.438 14V12.6307V12.3608V8.18182H113.109V14H112.438Z" fill="black"/>
</g>
<g opacity="0.2">
<rect x="138" width="1" height="4" rx="0.5" fill="black"/>
</g>
<g opacity="0.2">
<rect x="165.2" width="1" height="4" rx="0.5" fill="black"/>
<path d="M166.738 14.0795C166.499 14.0758 166.261 14.0303 166.022 13.9432C165.783 13.8561 165.566 13.7093 165.369 13.5028C165.172 13.2945 165.014 13.0133 164.894 12.6591C164.775 12.303 164.715 11.8561 164.715 11.3182C164.715 10.803 164.764 10.3466 164.86 9.94886C164.957 9.54924 165.097 9.21307 165.281 8.94034C165.464 8.66572 165.686 8.45739 165.945 8.31534C166.207 8.1733 166.501 8.10227 166.829 8.10227C167.155 8.10227 167.444 8.16761 167.698 8.2983C167.954 8.42708 168.162 8.60701 168.323 8.83807C168.484 9.06913 168.588 9.33523 168.636 9.63636H167.943C167.878 9.375 167.753 9.15814 167.568 8.9858C167.382 8.81345 167.136 8.72727 166.829 8.72727C166.378 8.72727 166.023 8.9233 165.764 9.31534C165.506 9.70739 165.376 10.2576 165.374 10.9659H165.42C165.526 10.8049 165.652 10.6676 165.798 10.554C165.945 10.4384 166.108 10.3494 166.286 10.2869C166.464 10.2244 166.653 10.1932 166.852 10.1932C167.185 10.1932 167.49 10.2765 167.766 10.4432C168.043 10.608 168.265 10.8362 168.431 11.1278C168.598 11.4176 168.681 11.75 168.681 12.125C168.681 12.4848 168.601 12.8144 168.44 13.1136C168.279 13.411 168.052 13.6477 167.761 13.8239C167.471 13.9981 167.13 14.0833 166.738 14.0795ZM166.738 13.4545C166.977 13.4545 167.191 13.3949 167.38 13.2756C167.571 13.1562 167.722 12.9962 167.832 12.7955C167.943 12.5947 167.999 12.3712 167.999 12.125C167.999 11.8845 167.945 11.6657 167.837 11.4688C167.731 11.2699 167.585 11.1117 167.397 10.9943C167.211 10.8769 166.999 10.8182 166.761 10.8182C166.581 10.8182 166.413 10.8542 166.258 10.9261C166.103 10.9962 165.966 11.0928 165.849 11.2159C165.733 11.339 165.642 11.4801 165.576 11.6392C165.51 11.7964 165.477 11.9621 165.477 12.1364C165.477 12.3674 165.531 12.5833 165.639 12.7841C165.748 12.9848 165.898 13.1468 166.087 13.2699C166.279 13.393 166.496 13.4545 166.738 13.4545Z" fill="black"/>
</g>
<g opacity="0.2">
<rect x="192.4" width="1" height="4" rx="0.5" fill="black"/>
</g>
<g opacity="0.2">
<rect x="219.6" width="1" height="4" rx="0.5" fill="black"/>
<path d="M221.101 14.0795C220.711 14.0795 220.366 14.0104 220.067 13.8722C219.77 13.732 219.538 13.5398 219.371 13.2955C219.204 13.0492 219.122 12.7689 219.124 12.4545C219.122 12.2083 219.17 11.9811 219.269 11.7727C219.367 11.5625 219.502 11.3873 219.672 11.2472C219.844 11.1051 220.037 11.0152 220.249 10.9773V10.9432C219.97 10.8712 219.749 10.715 219.584 10.4744C219.419 10.232 219.338 9.95644 219.34 9.64773C219.338 9.35227 219.413 9.08807 219.564 8.85511C219.716 8.62216 219.924 8.43845 220.189 8.30398C220.456 8.16951 220.76 8.10227 221.101 8.10227C221.438 8.10227 221.739 8.16951 222.004 8.30398C222.27 8.43845 222.478 8.62216 222.629 8.85511C222.783 9.08807 222.861 9.35227 222.862 9.64773C222.861 9.95644 222.776 10.232 222.61 10.4744C222.445 10.715 222.226 10.8712 221.953 10.9432V10.9773C222.164 11.0152 222.353 11.1051 222.521 11.2472C222.69 11.3873 222.825 11.5625 222.925 11.7727C223.025 11.9811 223.076 12.2083 223.078 12.4545C223.076 12.7689 222.991 13.0492 222.823 13.2955C222.656 13.5398 222.424 13.732 222.127 13.8722C221.831 14.0104 221.489 14.0795 221.101 14.0795ZM221.101 13.4545C221.364 13.4545 221.592 13.4119 221.783 13.3267C221.974 13.2415 222.122 13.1212 222.226 12.9659C222.33 12.8106 222.383 12.6288 222.385 12.4205C222.383 12.2008 222.326 12.0066 222.215 11.8381C222.103 11.6695 221.95 11.5369 221.757 11.4403C221.566 11.3437 221.347 11.2955 221.101 11.2955C220.853 11.2955 220.631 11.3437 220.436 11.4403C220.243 11.5369 220.091 11.6695 219.979 11.8381C219.869 12.0066 219.815 12.2008 219.817 12.4205C219.815 12.6288 219.865 12.8106 219.968 12.9659C220.072 13.1212 220.22 13.2415 220.414 13.3267C220.607 13.4119 220.836 13.4545 221.101 13.4545ZM221.101 10.6932C221.309 10.6932 221.494 10.6515 221.655 10.5682C221.818 10.4848 221.946 10.3684 222.039 10.2188C222.131 10.0691 222.179 9.89394 222.181 9.69318C222.179 9.49621 222.132 9.32481 222.041 9.17898C221.95 9.03125 221.825 8.91761 221.664 8.83807C221.503 8.75663 221.315 8.71591 221.101 8.71591C220.883 8.71591 220.693 8.75663 220.53 8.83807C220.367 8.91761 220.241 9.03125 220.152 9.17898C220.063 9.32481 220.02 9.49621 220.021 9.69318C220.02 9.89394 220.064 10.0691 220.155 10.2188C220.248 10.3684 220.376 10.4848 220.539 10.5682C220.701 10.6515 220.889 10.6932 221.101 10.6932Z" fill="black"/>
</g>
<g opacity="0.2">
<rect x="246.8" width="1" height="4" rx="0.5" fill="black"/>
</g>
<g opacity="0.2">
<rect x="274" width="1" height="4" rx="0.5" fill="black"/>
<path d="M272.788 8.18182V14H272.084V8.92045H272.05L270.629 9.86364V9.14773L272.084 8.18182H272.788ZM276.359 14.0795C275.931 14.0795 275.567 13.9631 275.266 13.7301C274.964 13.4953 274.734 13.1553 274.575 12.7102C274.416 12.2633 274.337 11.7235 274.337 11.0909C274.337 10.4621 274.416 9.92519 274.575 9.48011C274.736 9.03314 274.967 8.69223 275.268 8.45739C275.571 8.22064 275.935 8.10227 276.359 8.10227C276.784 8.10227 277.146 8.22064 277.447 8.45739C277.75 8.69223 277.982 9.03314 278.141 9.48011C278.302 9.92519 278.382 10.4621 278.382 11.0909C278.382 11.7235 278.303 12.2633 278.143 12.7102C277.984 13.1553 277.754 13.4953 277.453 13.7301C277.152 13.9631 276.787 14.0795 276.359 14.0795ZM276.359 13.4545C276.784 13.4545 277.113 13.25 277.348 12.8409C277.583 12.4318 277.7 11.8485 277.7 11.0909C277.7 10.5871 277.646 10.1581 277.538 9.80398C277.432 9.44981 277.279 9.17992 277.078 8.99432C276.879 8.80871 276.64 8.71591 276.359 8.71591C275.939 8.71591 275.61 8.9233 275.374 9.33807C275.137 9.75095 275.018 10.3352 275.018 11.0909C275.018 11.5947 275.071 12.0227 275.178 12.375C275.284 12.7273 275.436 12.9953 275.635 13.179C275.836 13.3627 276.077 13.4545 276.359 13.4545Z" fill="black"/>
</g>
</svg>
