<svg width="100" height="100" viewBox="0 0 100 100" fill="none" xmlns="http://www.w3.org/2000/svg">
<circle cx="50" cy="50" r="50" fill="#CFDDFF"/>
<g filter="url(#filter0_i_72_1000)">
<path d="M25.6779 64.3908C30.4706 64.3908 34.3558 60.5055 34.3558 55.7129C34.3558 50.9202 30.4706 47.035 25.6779 47.035C20.8852 47.035 17 50.9202 17 55.7129C17 60.5055 20.8852 64.3908 25.6779 64.3908Z" fill="url(#paint0_radial_72_1000)"/>
</g>
<g filter="url(#filter1_f_72_1000)">
<path d="M25.6779 60.8839C28.5338 60.8839 30.8489 58.5688 30.8489 55.7129C30.8489 52.857 28.5338 50.5418 25.6779 50.5418C22.822 50.5418 20.5068 52.857 20.5068 55.7129C20.5068 58.5688 22.822 60.8839 25.6779 60.8839Z" fill="url(#paint1_linear_72_1000)"/>
</g>
<g filter="url(#filter2_i_72_1000)">
<path d="M75.1332 64.3908C79.9259 64.3908 83.8111 60.5055 83.8111 55.7129C83.8111 50.9202 79.9259 47.035 75.1332 47.035C70.3406 47.035 66.4553 50.9202 66.4553 55.7129C66.4553 60.5055 70.3406 64.3908 75.1332 64.3908Z" fill="url(#paint2_linear_72_1000)"/>
<path d="M75.1332 64.3908C79.9259 64.3908 83.8111 60.5055 83.8111 55.7129C83.8111 50.9202 79.9259 47.035 75.1332 47.035C70.3406 47.035 66.4553 50.9202 66.4553 55.7129C66.4553 60.5055 70.3406 64.3908 75.1332 64.3908Z" fill="url(#paint3_radial_72_1000)"/>
</g>
<g filter="url(#filter3_f_72_1000)">
<path d="M75.1332 60.8839C77.9891 60.8839 80.3043 58.5688 80.3043 55.7129C80.3043 52.857 77.9891 50.5418 75.1332 50.5418C72.2773 50.5418 69.9622 52.857 69.9622 55.7129C69.9622 58.5688 72.2773 60.8839 75.1332 60.8839Z" fill="#D79E81"/>
<path d="M75.1332 60.8839C77.9891 60.8839 80.3043 58.5688 80.3043 55.7129C80.3043 52.857 77.9891 50.5418 75.1332 50.5418C72.2773 50.5418 69.9622 52.857 69.9622 55.7129C69.9622 58.5688 72.2773 60.8839 75.1332 60.8839Z" fill="url(#paint4_radial_72_1000)"/>
<path d="M75.1332 60.8839C77.9891 60.8839 80.3043 58.5688 80.3043 55.7129C80.3043 52.857 77.9891 50.5418 75.1332 50.5418C72.2773 50.5418 69.9622 52.857 69.9622 55.7129C69.9622 58.5688 72.2773 60.8839 75.1332 60.8839Z" fill="url(#paint5_radial_72_1000)"/>
</g>
<g filter="url(#filter4_i_72_1000)">
<path d="M23.8488 52.5266C23.9324 52.5322 24.016 52.535 24.1024 52.535C24.1024 52.535 23.8237 48.0999 23.5449 45.0502C23.5449 43.662 24.1024 42.0005 25.2175 41.167L26.0538 40.3363C27.4476 39.2268 28.0051 37.5626 28.0051 35.9012V31.4633C28.0051 30.0778 28.8442 28.9683 30.238 28.6924C33.5832 27.8589 40.5551 26.4734 50.5933 26.4734C60.6316 26.4734 67.6034 27.8589 70.9486 28.6924C72.0637 28.9683 73.1787 30.0778 73.1787 31.4633V35.9012C73.1787 37.5626 74.015 39.2268 75.1301 40.3335C77.7421 42.165 77.5804 43.1713 77.3629 45.3262C77.0842 48.0999 76.8054 52.811 76.8054 52.811H76.9002L75.5147 73.3893C74.6785 82.5884 67.4473 89 58.8252 89H42.1356C33.2347 89 26.2824 82.5884 25.4461 73.3893L23.8488 52.5266Z" fill="url(#paint6_linear_72_1000)"/>
<path d="M23.8488 52.5266C23.9324 52.5322 24.016 52.535 24.1024 52.535C24.1024 52.535 23.8237 48.0999 23.5449 45.0502C23.5449 43.662 24.1024 42.0005 25.2175 41.167L26.0538 40.3363C27.4476 39.2268 28.0051 37.5626 28.0051 35.9012V31.4633C28.0051 30.0778 28.8442 28.9683 30.238 28.6924C33.5832 27.8589 40.5551 26.4734 50.5933 26.4734C60.6316 26.4734 67.6034 27.8589 70.9486 28.6924C72.0637 28.9683 73.1787 30.0778 73.1787 31.4633V35.9012C73.1787 37.5626 74.015 39.2268 75.1301 40.3335C77.7421 42.165 77.5804 43.1713 77.3629 45.3262C77.0842 48.0999 76.8054 52.811 76.8054 52.811H76.9002L75.5147 73.3893C74.6785 82.5884 67.4473 89 58.8252 89H42.1356C33.2347 89 26.2824 82.5884 25.4461 73.3893L23.8488 52.5266Z" fill="url(#paint7_radial_72_1000)"/>
<path d="M23.8488 52.5266C23.9324 52.5322 24.016 52.535 24.1024 52.535C24.1024 52.535 23.8237 48.0999 23.5449 45.0502C23.5449 43.662 24.1024 42.0005 25.2175 41.167L26.0538 40.3363C27.4476 39.2268 28.0051 37.5626 28.0051 35.9012V31.4633C28.0051 30.0778 28.8442 28.9683 30.238 28.6924C33.5832 27.8589 40.5551 26.4734 50.5933 26.4734C60.6316 26.4734 67.6034 27.8589 70.9486 28.6924C72.0637 28.9683 73.1787 30.0778 73.1787 31.4633V35.9012C73.1787 37.5626 74.015 39.2268 75.1301 40.3335C77.7421 42.165 77.5804 43.1713 77.3629 45.3262C77.0842 48.0999 76.8054 52.811 76.8054 52.811H76.9002L75.5147 73.3893C74.6785 82.5884 67.4473 89 58.8252 89H42.1356C33.2347 89 26.2824 82.5884 25.4461 73.3893L23.8488 52.5266Z" fill="url(#paint8_linear_72_1000)"/>
<path d="M23.8488 52.5266C23.9324 52.5322 24.016 52.535 24.1024 52.535C24.1024 52.535 23.8237 48.0999 23.5449 45.0502C23.5449 43.662 24.1024 42.0005 25.2175 41.167L26.0538 40.3363C27.4476 39.2268 28.0051 37.5626 28.0051 35.9012V31.4633C28.0051 30.0778 28.8442 28.9683 30.238 28.6924C33.5832 27.8589 40.5551 26.4734 50.5933 26.4734C60.6316 26.4734 67.6034 27.8589 70.9486 28.6924C72.0637 28.9683 73.1787 30.0778 73.1787 31.4633V35.9012C73.1787 37.5626 74.015 39.2268 75.1301 40.3335C77.7421 42.165 77.5804 43.1713 77.3629 45.3262C77.0842 48.0999 76.8054 52.811 76.8054 52.811H76.9002L75.5147 73.3893C74.6785 82.5884 67.4473 89 58.8252 89H42.1356C33.2347 89 26.2824 82.5884 25.4461 73.3893L23.8488 52.5266Z" fill="url(#paint9_radial_72_1000)"/>
<path d="M23.8488 52.5266C23.9324 52.5322 24.016 52.535 24.1024 52.535C24.1024 52.535 23.8237 48.0999 23.5449 45.0502C23.5449 43.662 24.1024 42.0005 25.2175 41.167L26.0538 40.3363C27.4476 39.2268 28.0051 37.5626 28.0051 35.9012V31.4633C28.0051 30.0778 28.8442 28.9683 30.238 28.6924C33.5832 27.8589 40.5551 26.4734 50.5933 26.4734C60.6316 26.4734 67.6034 27.8589 70.9486 28.6924C72.0637 28.9683 73.1787 30.0778 73.1787 31.4633V35.9012C73.1787 37.5626 74.015 39.2268 75.1301 40.3335C77.7421 42.165 77.5804 43.1713 77.3629 45.3262C77.0842 48.0999 76.8054 52.811 76.8054 52.811H76.9002L75.5147 73.3893C74.6785 82.5884 67.4473 89 58.8252 89H42.1356C33.2347 89 26.2824 82.5884 25.4461 73.3893L23.8488 52.5266Z" fill="url(#paint10_radial_72_1000)"/>
</g>
<g filter="url(#filter5_i_72_1000)">
<path d="M75.4119 22.0383L77.642 23.145C81.5447 25.0879 83.7748 29.5231 82.9385 34.237L79.8721 50.04C79.599 51.6708 78.5201 52.7719 76.9005 52.8109H76.8058C76.8058 52.8109 77.0845 48.0998 77.3633 45.3262C77.5891 43.0737 77.196 42.388 75.1332 40.3363C74.0181 39.2268 73.1818 37.5626 73.1818 35.9012V31.4633C73.1818 30.0778 72.0668 28.9683 70.9517 28.6924C67.6066 27.8588 60.6319 26.4734 50.5937 26.4734C40.5582 26.4734 33.5863 27.8588 30.2384 28.6924C28.8445 28.9683 28.0083 30.0778 28.0083 31.4633V35.9012C28.0083 37.5626 27.4507 39.2268 26.0569 40.3335L25.2206 41.1698C24.1056 42.0005 23.548 43.6619 23.548 45.0502C23.8268 48.0998 24.1056 52.535 24.1056 52.535C23.3062 52.5578 22.5259 52.2888 21.9104 51.7784C21.2948 51.268 20.886 50.551 20.7604 49.7613L17.6912 33.9582C17.1337 29.5231 19.3638 25.0879 23.2665 23.145L25.4966 22.0383C26.8904 21.2048 28.2842 20.0953 29.6808 18.9858L34.6986 13.7172C37.7678 10.9463 42.2308 10.1184 46.1334 12.0585C48.9211 12.8893 51.9875 12.8893 54.7751 12.0585C58.9593 10.6731 63.7011 11.7798 67.0463 14.8322L71.2277 18.9886C72.3428 20.3768 73.7366 21.2076 75.4091 22.0411" fill="#EBCC94"/>
<path d="M75.4119 22.0383L77.642 23.145C81.5447 25.0879 83.7748 29.5231 82.9385 34.237L79.8721 50.04C79.599 51.6708 78.5201 52.7719 76.9005 52.8109H76.8058C76.8058 52.8109 77.0845 48.0998 77.3633 45.3262C77.5891 43.0737 77.196 42.388 75.1332 40.3363C74.0181 39.2268 73.1818 37.5626 73.1818 35.9012V31.4633C73.1818 30.0778 72.0668 28.9683 70.9517 28.6924C67.6066 27.8588 60.6319 26.4734 50.5937 26.4734C40.5582 26.4734 33.5863 27.8588 30.2384 28.6924C28.8445 28.9683 28.0083 30.0778 28.0083 31.4633V35.9012C28.0083 37.5626 27.4507 39.2268 26.0569 40.3335L25.2206 41.1698C24.1056 42.0005 23.548 43.6619 23.548 45.0502C23.8268 48.0998 24.1056 52.535 24.1056 52.535C23.3062 52.5578 22.5259 52.2888 21.9104 51.7784C21.2948 51.268 20.886 50.551 20.7604 49.7613L17.6912 33.9582C17.1337 29.5231 19.3638 25.0879 23.2665 23.145L25.4966 22.0383C26.8904 21.2048 28.2842 20.0953 29.6808 18.9858L34.6986 13.7172C37.7678 10.9463 42.2308 10.1184 46.1334 12.0585C48.9211 12.8893 51.9875 12.8893 54.7751 12.0585C58.9593 10.6731 63.7011 11.7798 67.0463 14.8322L71.2277 18.9886C72.3428 20.3768 73.7366 21.2076 75.4091 22.0411" fill="url(#paint11_radial_72_1000)"/>
<path d="M75.4119 22.0383L77.642 23.145C81.5447 25.0879 83.7748 29.5231 82.9385 34.237L79.8721 50.04C79.599 51.6708 78.5201 52.7719 76.9005 52.8109H76.8058C76.8058 52.8109 77.0845 48.0998 77.3633 45.3262C77.5891 43.0737 77.196 42.388 75.1332 40.3363C74.0181 39.2268 73.1818 37.5626 73.1818 35.9012V31.4633C73.1818 30.0778 72.0668 28.9683 70.9517 28.6924C67.6066 27.8588 60.6319 26.4734 50.5937 26.4734C40.5582 26.4734 33.5863 27.8588 30.2384 28.6924C28.8445 28.9683 28.0083 30.0778 28.0083 31.4633V35.9012C28.0083 37.5626 27.4507 39.2268 26.0569 40.3335L25.2206 41.1698C24.1056 42.0005 23.548 43.6619 23.548 45.0502C23.8268 48.0998 24.1056 52.535 24.1056 52.535C23.3062 52.5578 22.5259 52.2888 21.9104 51.7784C21.2948 51.268 20.886 50.551 20.7604 49.7613L17.6912 33.9582C17.1337 29.5231 19.3638 25.0879 23.2665 23.145L25.4966 22.0383C26.8904 21.2048 28.2842 20.0953 29.6808 18.9858L34.6986 13.7172C37.7678 10.9463 42.2308 10.1184 46.1334 12.0585C48.9211 12.8893 51.9875 12.8893 54.7751 12.0585C58.9593 10.6731 63.7011 11.7798 67.0463 14.8322L71.2277 18.9886C72.3428 20.3768 73.7366 21.2076 75.4091 22.0411" fill="url(#paint12_linear_72_1000)"/>
<path d="M75.4119 22.0383L77.642 23.145C81.5447 25.0879 83.7748 29.5231 82.9385 34.237L79.8721 50.04C79.599 51.6708 78.5201 52.7719 76.9005 52.8109H76.8058C76.8058 52.8109 77.0845 48.0998 77.3633 45.3262C77.5891 43.0737 77.196 42.388 75.1332 40.3363C74.0181 39.2268 73.1818 37.5626 73.1818 35.9012V31.4633C73.1818 30.0778 72.0668 28.9683 70.9517 28.6924C67.6066 27.8588 60.6319 26.4734 50.5937 26.4734C40.5582 26.4734 33.5863 27.8588 30.2384 28.6924C28.8445 28.9683 28.0083 30.0778 28.0083 31.4633V35.9012C28.0083 37.5626 27.4507 39.2268 26.0569 40.3335L25.2206 41.1698C24.1056 42.0005 23.548 43.6619 23.548 45.0502C23.8268 48.0998 24.1056 52.535 24.1056 52.535C23.3062 52.5578 22.5259 52.2888 21.9104 51.7784C21.2948 51.268 20.886 50.551 20.7604 49.7613L17.6912 33.9582C17.1337 29.5231 19.3638 25.0879 23.2665 23.145L25.4966 22.0383C26.8904 21.2048 28.2842 20.0953 29.6808 18.9858L34.6986 13.7172C37.7678 10.9463 42.2308 10.1184 46.1334 12.0585C48.9211 12.8893 51.9875 12.8893 54.7751 12.0585C58.9593 10.6731 63.7011 11.7798 67.0463 14.8322L71.2277 18.9886C72.3428 20.3768 73.7366 21.2076 75.4091 22.0411" fill="url(#paint13_radial_72_1000)"/>
<path d="M75.4119 22.0383L77.642 23.145C81.5447 25.0879 83.7748 29.5231 82.9385 34.237L79.8721 50.04C79.599 51.6708 78.5201 52.7719 76.9005 52.8109H76.8058C76.8058 52.8109 77.0845 48.0998 77.3633 45.3262C77.5891 43.0737 77.196 42.388 75.1332 40.3363C74.0181 39.2268 73.1818 37.5626 73.1818 35.9012V31.4633C73.1818 30.0778 72.0668 28.9683 70.9517 28.6924C67.6066 27.8588 60.6319 26.4734 50.5937 26.4734C40.5582 26.4734 33.5863 27.8588 30.2384 28.6924C28.8445 28.9683 28.0083 30.0778 28.0083 31.4633V35.9012C28.0083 37.5626 27.4507 39.2268 26.0569 40.3335L25.2206 41.1698C24.1056 42.0005 23.548 43.6619 23.548 45.0502C23.8268 48.0998 24.1056 52.535 24.1056 52.535C23.3062 52.5578 22.5259 52.2888 21.9104 51.7784C21.2948 51.268 20.886 50.551 20.7604 49.7613L17.6912 33.9582C17.1337 29.5231 19.3638 25.0879 23.2665 23.145L25.4966 22.0383C26.8904 21.2048 28.2842 20.0953 29.6808 18.9858L34.6986 13.7172C37.7678 10.9463 42.2308 10.1184 46.1334 12.0585C48.9211 12.8893 51.9875 12.8893 54.7751 12.0585C58.9593 10.6731 63.7011 11.7798 67.0463 14.8322L71.2277 18.9886C72.3428 20.3768 73.7366 21.2076 75.4091 22.0411" fill="url(#paint14_radial_72_1000)"/>
<path d="M75.4119 22.0383L77.642 23.145C81.5447 25.0879 83.7748 29.5231 82.9385 34.237L79.8721 50.04C79.599 51.6708 78.5201 52.7719 76.9005 52.8109H76.8058C76.8058 52.8109 77.0845 48.0998 77.3633 45.3262C77.5891 43.0737 77.196 42.388 75.1332 40.3363C74.0181 39.2268 73.1818 37.5626 73.1818 35.9012V31.4633C73.1818 30.0778 72.0668 28.9683 70.9517 28.6924C67.6066 27.8588 60.6319 26.4734 50.5937 26.4734C40.5582 26.4734 33.5863 27.8588 30.2384 28.6924C28.8445 28.9683 28.0083 30.0778 28.0083 31.4633V35.9012C28.0083 37.5626 27.4507 39.2268 26.0569 40.3335L25.2206 41.1698C24.1056 42.0005 23.548 43.6619 23.548 45.0502C23.8268 48.0998 24.1056 52.535 24.1056 52.535C23.3062 52.5578 22.5259 52.2888 21.9104 51.7784C21.2948 51.268 20.886 50.551 20.7604 49.7613L17.6912 33.9582C17.1337 29.5231 19.3638 25.0879 23.2665 23.145L25.4966 22.0383C26.8904 21.2048 28.2842 20.0953 29.6808 18.9858L34.6986 13.7172C37.7678 10.9463 42.2308 10.1184 46.1334 12.0585C48.9211 12.8893 51.9875 12.8893 54.7751 12.0585C58.9593 10.6731 63.7011 11.7798 67.0463 14.8322L71.2277 18.9886C72.3428 20.3768 73.7366 21.2076 75.4091 22.0411" fill="url(#paint15_radial_72_1000)"/>
</g>
<path d="M75.4119 22.0383L77.642 23.145C81.5447 25.0879 83.7748 29.5231 82.9385 34.237L79.8721 50.04C79.599 51.6708 78.5201 52.7719 76.9005 52.8109H76.8058C76.8058 52.8109 77.0845 48.0998 77.3633 45.3262C77.5891 43.0737 77.196 42.388 75.1332 40.3363C74.0181 39.2268 73.1818 37.5626 73.1818 35.9012V31.4633C73.1818 30.0778 72.0668 28.9683 70.9517 28.6924C67.6066 27.8588 60.6319 26.4734 50.5937 26.4734C40.5582 26.4734 33.5863 27.8588 30.2384 28.6924C28.8445 28.9683 28.0083 30.0778 28.0083 31.4633V35.9012C28.0083 37.5626 27.4507 39.2268 26.0569 40.3335L25.2206 41.1698C24.1056 42.0005 23.548 43.6619 23.548 45.0502C23.8268 48.0998 24.1056 52.535 24.1056 52.535C23.3062 52.5578 22.5259 52.2888 21.9104 51.7784C21.2948 51.268 20.886 50.551 20.7604 49.7613L17.6912 33.9582C17.1337 29.5231 19.3638 25.0879 23.2665 23.145L25.4966 22.0383C26.8904 21.2048 28.2842 20.0953 29.6808 18.9858L34.6986 13.7172C37.7678 10.9463 42.2308 10.1184 46.1334 12.0585C48.9211 12.8893 51.9875 12.8893 54.7751 12.0585C58.9593 10.6731 63.7011 11.7798 67.0463 14.8322L71.2277 18.9886C72.3428 20.3768 73.7366 21.2076 75.4091 22.0411" fill="url(#paint16_radial_72_1000)"/>
<path d="M75.4119 22.0383L77.642 23.145C81.5447 25.0879 83.7748 29.5231 82.9385 34.237L79.8721 50.04C79.599 51.6708 78.5201 52.7719 76.9005 52.8109H76.8058C76.8058 52.8109 77.0845 48.0998 77.3633 45.3262C77.5891 43.0737 77.196 42.388 75.1332 40.3363C74.0181 39.2268 73.1818 37.5626 73.1818 35.9012V31.4633C73.1818 30.0778 72.0668 28.9683 70.9517 28.6924C67.6066 27.8588 60.6319 26.4734 50.5937 26.4734C40.5582 26.4734 33.5863 27.8588 30.2384 28.6924C28.8445 28.9683 28.0083 30.0778 28.0083 31.4633V35.9012C28.0083 37.5626 27.4507 39.2268 26.0569 40.3335L25.2206 41.1698C24.1056 42.0005 23.548 43.6619 23.548 45.0502C23.8268 48.0998 24.1056 52.535 24.1056 52.535C23.3062 52.5578 22.5259 52.2888 21.9104 51.7784C21.2948 51.268 20.886 50.551 20.7604 49.7613L17.6912 33.9582C17.1337 29.5231 19.3638 25.0879 23.2665 23.145L25.4966 22.0383C26.8904 21.2048 28.2842 20.0953 29.6808 18.9858L34.6986 13.7172C37.7678 10.9463 42.2308 10.1184 46.1334 12.0585C48.9211 12.8893 51.9875 12.8893 54.7751 12.0585C58.9593 10.6731 63.7011 11.7798 67.0463 14.8322L71.2277 18.9886C72.3428 20.3768 73.7366 21.2076 75.4091 22.0411" fill="url(#paint17_radial_72_1000)"/>
<g filter="url(#filter6_f_72_1000)">
<path d="M48.9298 55.0745L44.6647 63.9113C44.1351 65.7288 45.4062 67.5464 47.2015 67.5464H51.0344C52.8325 67.5464 54.1008 65.701 53.5712 63.9113L50.9815 55.0745C50.4267 53.1204 49.5124 53.1204 48.9298 55.0745Z" fill="#C68378"/>
</g>
<g filter="url(#filter7_f_72_1000)">
<path d="M48.3747 54.2299L45.6121 63.0667C45.4812 63.4882 45.4518 63.9348 45.5262 64.3699C45.6006 64.805 45.7768 65.2164 46.0404 65.5704C46.304 65.9245 46.6475 66.2113 47.043 66.4074C47.4385 66.6036 47.8747 66.7034 48.3161 66.6989H52.4028C54.3207 66.6989 55.6727 64.8535 55.1096 63.0639L52.3498 54.2271C51.7561 52.2729 48.9935 52.2729 48.3747 54.2271" fill="#E4AC8F"/>
<path d="M48.3747 54.2299L45.6121 63.0667C45.4812 63.4882 45.4518 63.9348 45.5262 64.3699C45.6006 64.805 45.7768 65.2164 46.0404 65.5704C46.304 65.9245 46.6475 66.2113 47.043 66.4074C47.4385 66.6036 47.8747 66.7034 48.3161 66.6989H52.4028C54.3207 66.6989 55.6727 64.8535 55.1096 63.0639L52.3498 54.2271C51.7561 52.2729 48.9935 52.2729 48.3747 54.2271" fill="url(#paint18_linear_72_1000)"/>
<path d="M48.3747 54.2299L45.6121 63.0667C45.4812 63.4882 45.4518 63.9348 45.5262 64.3699C45.6006 64.805 45.7768 65.2164 46.0404 65.5704C46.304 65.9245 46.6475 66.2113 47.043 66.4074C47.4385 66.6036 47.8747 66.7034 48.3161 66.6989H52.4028C54.3207 66.6989 55.6727 64.8535 55.1096 63.0639L52.3498 54.2271C51.7561 52.2729 48.9935 52.2729 48.3747 54.2271" fill="url(#paint19_linear_72_1000)"/>
<path d="M48.3747 54.2299L45.6121 63.0667C45.4812 63.4882 45.4518 63.9348 45.5262 64.3699C45.6006 64.805 45.7768 65.2164 46.0404 65.5704C46.304 65.9245 46.6475 66.2113 47.043 66.4074C47.4385 66.6036 47.8747 66.7034 48.3161 66.6989H52.4028C54.3207 66.6989 55.6727 64.8535 55.1096 63.0639L52.3498 54.2271C51.7561 52.2729 48.9935 52.2729 48.3747 54.2271" fill="url(#paint20_linear_72_1000)"/>
</g>
<path d="M48.3747 54.2299L45.6121 63.0667C45.4812 63.4882 45.4518 63.9348 45.5262 64.3699C45.6006 64.805 45.7768 65.2164 46.0404 65.5704C46.304 65.9245 46.6475 66.2113 47.043 66.4074C47.4385 66.6036 47.8747 66.7034 48.3161 66.6989H52.4028C54.3207 66.6989 55.6727 64.8535 55.1096 63.0639L52.3498 54.2271C51.7561 52.2729 48.9935 52.2729 48.3747 54.2271" fill="url(#paint21_linear_72_1000)"/>
<path d="M43.2236 70.1528C43.0423 70.0584 42.835 70.0261 42.6336 70.0609C42.4322 70.0956 42.2477 70.1955 42.1085 70.3452C41.966 70.4873 41.8785 70.6755 41.8616 70.8761C41.8448 71.0767 41.8997 71.2768 42.0165 71.4407C42.93 72.8158 44.1704 73.9428 45.6265 74.7208C47.0827 75.4987 48.709 75.9032 50.3599 75.8981C52.0115 75.9034 53.6386 75.4986 55.0953 74.7202C56.5519 73.9418 57.7926 72.814 58.7061 71.4379C58.8221 71.272 58.8762 71.0705 58.8589 70.8688C58.8416 70.667 58.7539 70.4778 58.6113 70.334C58.4708 70.1861 58.2859 70.0881 58.0846 70.0549C57.8834 70.0217 57.6768 70.0551 57.4962 70.15C55.2885 71.2807 52.8403 71.8612 50.3599 71.8421C47.7451 71.8421 45.2864 71.2289 43.2236 70.1528Z" fill="#88024E"/>
<path d="M43.2264 70.1528H43.2236M43.2236 70.1528C43.0423 70.0584 42.835 70.0261 42.6336 70.0609C42.4322 70.0956 42.2477 70.1955 42.1085 70.3452C41.966 70.4873 41.8785 70.6755 41.8616 70.8761C41.8448 71.0767 41.8997 71.2768 42.0165 71.4407C42.93 72.8158 44.1704 73.9428 45.6265 74.7208C47.0827 75.4987 48.709 75.9032 50.3599 75.8981C52.0115 75.9034 53.6386 75.4986 55.0953 74.7202C56.5519 73.9418 57.7926 72.814 58.7061 71.4379C58.8221 71.272 58.8762 71.0705 58.8589 70.8688C58.8416 70.667 58.7539 70.4778 58.6113 70.334C58.4708 70.1861 58.2859 70.0881 58.0846 70.0549C57.8834 70.0217 57.6768 70.0551 57.4962 70.15C55.2885 71.2807 52.8403 71.8612 50.3599 71.8421C47.7451 71.8421 45.2864 71.2289 43.2236 70.1528Z" stroke="url(#paint22_linear_72_1000)" stroke-width="0.0902854"/>
<g filter="url(#filter8_i_72_1000)">
<path d="M69.6975 41.5712L69.6891 41.5656L69.6808 41.5601L69.6585 41.5406L69.5944 41.4904C69.3383 41.2884 69.0702 41.1022 68.7915 40.9328C68.0988 40.5012 67.3682 40.1335 66.6088 39.8345C64.1429 38.8673 61.4618 38.5833 58.848 39.0122C58.488 39.0689 58.1427 39.196 57.8317 39.3862C57.5208 39.5764 57.2504 39.826 57.036 40.1207C56.8215 40.4154 56.6672 40.7495 56.5818 41.1038C56.4965 41.4582 56.4817 41.8259 56.5385 42.1859C56.5952 42.5459 56.7223 42.8913 56.9125 43.2022C57.1027 43.5131 57.3523 43.7835 57.647 43.998C57.9417 44.2124 58.2758 44.3667 58.6301 44.4521C58.9845 44.5375 59.3522 44.5522 59.7122 44.4954C61.3465 44.2215 63.0245 44.3948 64.5682 44.9972C65.1179 45.214 65.6415 45.4917 66.1293 45.8251L66.1711 45.8558C66.4525 46.0873 66.7766 46.2612 67.1252 46.3675C67.4737 46.4737 67.8397 46.5103 68.2024 46.4751C68.565 46.4399 68.9172 46.3336 69.2388 46.1623C69.5604 45.991 69.8451 45.758 70.0766 45.4767C70.3082 45.1954 70.482 44.8712 70.5883 44.5227C70.6945 44.1741 70.7311 43.8081 70.6959 43.4454C70.6607 43.0828 70.5544 42.7306 70.3831 42.409C70.2118 42.0874 69.9788 41.8028 69.6975 41.5712Z" fill="#9A6634"/>
</g>
<g filter="url(#filter9_i_72_1000)">
<path d="M30.7462 41.574L30.7518 41.5684L30.763 41.5628L30.7853 41.5433L30.8466 41.4931L31.0334 41.3537C31.2345 41.2069 31.441 41.0675 31.6522 40.9356C32.1707 40.6095 32.9067 40.2052 33.8349 39.8373C36.3008 38.8702 38.9819 38.5861 41.5957 39.0149C41.9557 39.0717 42.3011 39.1988 42.612 39.389C42.9229 39.5792 43.1933 39.8288 43.4078 40.1235C43.6222 40.4182 43.7766 40.7522 43.8619 41.1066C43.9473 41.4609 43.962 41.8286 43.9053 42.1886C43.8485 42.5487 43.7214 42.894 43.5312 43.2049C43.341 43.5158 43.0914 43.7863 42.7967 44.0007C42.502 44.2152 42.168 44.3695 41.8136 44.4549C41.4593 44.5402 41.0916 44.5549 40.7315 44.4982C39.0972 44.2241 37.4192 44.3975 35.8755 45C35.3258 45.2167 34.8022 45.4944 34.3144 45.8279L34.2726 45.8586C33.7048 46.3266 32.9743 46.5498 32.2419 46.4792C31.5095 46.4087 30.8351 46.05 30.3671 45.4822C29.8991 44.9144 29.6759 44.184 29.7464 43.4516C29.817 42.7191 30.1757 42.0448 30.7435 41.5768" fill="#9A6634"/>
</g>
<path d="M62.7755 48.2727C66.1681 48.2727 69.0365 50.6143 69.8143 53.7782C69.867 53.989 69.8708 54.209 69.8254 54.4215C69.7801 54.634 69.6867 54.8333 69.5524 55.0041C69.4182 55.1749 69.2467 55.3128 69.0509 55.4071C68.8552 55.5015 68.6405 55.5498 68.4233 55.5484H56.8267C56.6511 55.5484 56.4777 55.5098 56.3187 55.4353C56.1597 55.3609 56.0189 55.2524 55.9064 55.1176C55.794 54.9828 55.7125 54.8249 55.6677 54.6551C55.623 54.4853 55.6161 54.3078 55.6475 54.1351C55.9729 52.4844 56.8612 50.9978 58.1607 49.9291C59.4601 48.8605 61.0903 48.276 62.7727 48.2755" fill="white"/>
<path d="M61.6997 49.686C62.4128 49.6869 63.116 49.8521 63.7549 50.1689C64.3937 50.4857 64.9509 50.9455 65.3831 51.5126C65.8154 52.0797 66.1111 52.7388 66.2473 53.4388C66.3835 54.1387 66.3564 54.8606 66.1683 55.5484H57.2089C57.0992 55.1496 57.042 54.7382 57.0388 54.3246C57.0432 53.0924 57.5361 51.9121 58.4092 51.0426C59.2824 50.1731 60.4675 49.6853 61.6997 49.686Z" fill="url(#paint23_radial_72_1000)"/>
<path d="M59.0407 54.3246C59.0407 52.8472 60.2227 51.668 61.6973 51.668C63.1748 51.668 64.3539 52.85 64.3539 54.3246C64.3572 54.7503 64.2568 55.1703 64.0612 55.5484H59.3585C59.1451 55.1762 59.0354 54.7536 59.0407 54.3246Z" fill="black"/>
<g filter="url(#filter10_f_72_1000)">
<path d="M61.3568 50.6701C61.6886 51.1105 60.9944 51.6485 60.2139 52.2367C59.425 52.8221 58.8424 53.2347 58.5135 52.7942C58.1817 52.351 58.5525 51.5175 59.3358 50.9293C60.1219 50.3439 61.0279 50.2296 61.3568 50.6701Z" fill="#C7A7A3"/>
<path d="M61.3568 50.6701C61.6886 51.1105 60.9944 51.6485 60.2139 52.2367C59.425 52.8221 58.8424 53.2347 58.5135 52.7942C58.1817 52.351 58.5525 51.5175 59.3358 50.9293C60.1219 50.3439 61.0279 50.2296 61.3568 50.6701Z" fill="url(#paint24_radial_72_1000)"/>
</g>
<g filter="url(#filter11_f_72_1000)">
<path d="M65.8311 53.7141C65.6924 52.8064 65.2709 51.9656 64.6268 51.3112L63.2776 52.7914L63.8853 53.9789L65.8311 53.7141Z" fill="url(#paint25_linear_72_1000)"/>
</g>
<path d="M37.9211 48.2727C34.5257 48.2727 31.6572 50.6143 30.8795 53.7782C30.8268 53.989 30.823 54.209 30.8683 54.4215C30.9137 54.634 31.0071 54.8333 31.1414 55.0041C31.2756 55.1749 31.4471 55.3128 31.6429 55.4071C31.8386 55.5015 32.0533 55.5498 32.2705 55.5484H43.8671C44.0427 55.5484 44.2161 55.5098 44.3751 55.4353C44.5341 55.3609 44.6749 55.2524 44.7873 55.1176C44.8998 54.9828 44.9813 54.8249 45.0261 54.6551C45.0708 54.4853 45.0777 54.3078 45.0462 54.1351C44.7179 52.4858 43.8288 51.001 42.53 49.9329C41.2312 48.8648 39.6027 48.2764 37.9211 48.2727Z" fill="white"/>
<path d="M38.997 49.686C38.2837 49.6865 37.5802 49.8514 36.941 50.168C36.3018 50.4846 35.7443 50.9444 35.3117 51.5115C34.8791 52.0787 34.5832 52.7379 34.4468 53.4381C34.3105 54.1382 34.3375 54.8604 34.5257 55.5484H43.4879C43.5956 55.1493 43.6518 54.738 43.6552 54.3246C43.6471 53.0935 43.1531 51.9154 42.2807 51.0467C41.4083 50.1779 40.2282 49.6889 38.997 49.686Z" fill="url(#paint26_radial_72_1000)"/>
<path d="M41.6538 54.3246C41.6549 53.9755 41.587 53.6295 41.4538 53.3067C41.3207 52.9839 41.1251 52.6906 40.8782 52.4437C40.6313 52.1968 40.338 52.0011 40.0152 51.868C39.6923 51.7349 39.3464 51.6669 38.9972 51.668C38.648 51.6669 38.3021 51.7349 37.9793 51.868C37.6564 52.0011 37.3631 52.1968 37.1162 52.4437C36.8693 52.6906 36.6737 52.9839 36.5406 53.3067C36.4074 53.6295 36.3395 53.9755 36.3406 54.3246C36.3406 54.7707 36.4437 55.1888 36.6333 55.5484H41.336C41.5397 55.1723 41.6488 54.7523 41.6538 54.3246Z" fill="black"/>
<g filter="url(#filter12_f_72_1000)">
<path d="M43.2349 53.7811C43.2349 52.2813 42.0167 51.2833 41.6849 50.9795L40.188 52.4291L41.1079 54.3079L43.2349 53.7811Z" fill="url(#paint27_linear_72_1000)"/>
</g>
<g filter="url(#filter13_f_72_1000)">
<path d="M38.0753 52.5745C39.0629 52.0513 39.6486 51.2212 39.3834 50.7206C39.1181 50.2199 38.1024 50.2383 37.1148 50.7615C36.1271 51.2848 35.5414 52.1148 35.8067 52.6155C36.0719 53.1161 37.0876 53.0978 38.0753 52.5745Z" fill="#C7A7A3" fill-opacity="0.9"/>
<path d="M38.0753 52.5745C39.0629 52.0513 39.6486 51.2212 39.3834 50.7206C39.1181 50.2199 38.1024 50.2383 37.1148 50.7615C36.1271 51.2848 35.5414 52.1148 35.8067 52.6155C36.0719 53.1161 37.0876 53.0978 38.0753 52.5745Z" fill="url(#paint28_radial_72_1000)"/>
</g>
<g filter="url(#filter14_f_72_1000)">
<path d="M58.9929 40.8213C61.2286 40.4311 65.5885 40.5426 68.6075 42.8898" stroke="url(#paint29_linear_72_1000)" stroke-width="0.451427" stroke-linecap="round"/>
</g>
<g filter="url(#filter15_f_72_1000)">
<path d="M31.8608 43.517C33.5613 42.0117 37.2744 40.4311 41.8768 41.1642" stroke="url(#paint30_linear_72_1000)" stroke-width="0.451427" stroke-linecap="round"/>
</g>
<defs>
<filter id="filter0_i_72_1000" x="17" y="47.035" width="17.5363" height="17.3558" filterUnits="userSpaceOnUse" color-interpolation-filters="sRGB">
<feFlood flood-opacity="0" result="BackgroundImageFix"/>
<feBlend mode="normal" in="SourceGraphic" in2="BackgroundImageFix" result="shape"/>
<feColorMatrix in="SourceAlpha" type="matrix" values="0 0 0 0 0 0 0 0 0 0 0 0 0 0 0 0 0 0 127 0" result="hardAlpha"/>
<feOffset dx="0.180571"/>
<feGaussianBlur stdDeviation="0.180571"/>
<feComposite in2="hardAlpha" operator="arithmetic" k2="-1" k3="1"/>
<feColorMatrix type="matrix" values="0 0 0 0 0.866667 0 0 0 0 0.643137 0 0 0 0 0.533333 0 0 0 1 0"/>
<feBlend mode="normal" in2="shape" result="effect1_innerShadow_72_1000"/>
</filter>
<filter id="filter1_f_72_1000" x="20.0554" y="50.0904" width="11.2449" height="11.245" filterUnits="userSpaceOnUse" color-interpolation-filters="sRGB">
<feFlood flood-opacity="0" result="BackgroundImageFix"/>
<feBlend mode="normal" in="SourceGraphic" in2="BackgroundImageFix" result="shape"/>
<feGaussianBlur stdDeviation="0.225713" result="effect1_foregroundBlur_72_1000"/>
</filter>
<filter id="filter2_i_72_1000" x="66.4553" y="46.8092" width="17.5814" height="17.5815" filterUnits="userSpaceOnUse" color-interpolation-filters="sRGB">
<feFlood flood-opacity="0" result="BackgroundImageFix"/>
<feBlend mode="normal" in="SourceGraphic" in2="BackgroundImageFix" result="shape"/>
<feColorMatrix in="SourceAlpha" type="matrix" values="0 0 0 0 0 0 0 0 0 0 0 0 0 0 0 0 0 0 127 0" result="hardAlpha"/>
<feOffset dx="0.225713" dy="-0.225713"/>
<feGaussianBlur stdDeviation="0.225713"/>
<feComposite in2="hardAlpha" operator="arithmetic" k2="-1" k3="1"/>
<feColorMatrix type="matrix" values="0 0 0 0 0.768627 0 0 0 0 0.529412 0 0 0 0 0.505882 0 0 0 1 0"/>
<feBlend mode="normal" in2="shape" result="effect1_innerShadow_72_1000"/>
</filter>
<filter id="filter3_f_72_1000" x="69.5107" y="50.0904" width="11.2449" height="11.245" filterUnits="userSpaceOnUse" color-interpolation-filters="sRGB">
<feFlood flood-opacity="0" result="BackgroundImageFix"/>
<feBlend mode="normal" in="SourceGraphic" in2="BackgroundImageFix" result="shape"/>
<feGaussianBlur stdDeviation="0.225713" result="effect1_foregroundBlur_72_1000"/>
</filter>
<filter id="filter4_i_72_1000" x="23.5449" y="26.4734" width="53.9285" height="62.7523" filterUnits="userSpaceOnUse" color-interpolation-filters="sRGB">
<feFlood flood-opacity="0" result="BackgroundImageFix"/>
<feBlend mode="normal" in="SourceGraphic" in2="BackgroundImageFix" result="shape"/>
<feColorMatrix in="SourceAlpha" type="matrix" values="0 0 0 0 0 0 0 0 0 0 0 0 0 0 0 0 0 0 127 0" result="hardAlpha"/>
<feOffset dy="0.225713"/>
<feGaussianBlur stdDeviation="0.225713"/>
<feComposite in2="hardAlpha" operator="arithmetic" k2="-1" k3="1"/>
<feColorMatrix type="matrix" values="0 0 0 0 0.752941 0 0 0 0 0.501961 0 0 0 0 0.34902 0 0 0 1 0"/>
<feBlend mode="normal" in2="shape" result="effect1_innerShadow_72_1000"/>
</filter>
<filter id="filter5_i_72_1000" x="17.6064" y="10.5486" width="65.5068" height="42.2624" filterUnits="userSpaceOnUse" color-interpolation-filters="sRGB">
<feFlood flood-opacity="0" result="BackgroundImageFix"/>
<feBlend mode="normal" in="SourceGraphic" in2="BackgroundImageFix" result="shape"/>
<feColorMatrix in="SourceAlpha" type="matrix" values="0 0 0 0 0 0 0 0 0 0 0 0 0 0 0 0 0 0 127 0" result="hardAlpha"/>
<feOffset dy="-0.451427"/>
<feGaussianBlur stdDeviation="0.33857"/>
<feComposite in2="hardAlpha" operator="arithmetic" k2="-1" k3="1"/>
<feColorMatrix type="matrix" values="0 0 0 0 0.858824 0 0 0 0 0.690196 0 0 0 0 0.533333 0 0 0 1 0"/>
<feBlend mode="normal" in2="shape" result="effect1_innerShadow_72_1000"/>
</filter>
<filter id="filter6_f_72_1000" x="43.8663" y="52.9318" width="10.5035" height="15.2918" filterUnits="userSpaceOnUse" color-interpolation-filters="sRGB">
<feFlood flood-opacity="0" result="BackgroundImageFix"/>
<feBlend mode="normal" in="SourceGraphic" in2="BackgroundImageFix" result="shape"/>
<feGaussianBlur stdDeviation="0.33857" result="effect1_foregroundBlur_72_1000"/>
</filter>
<filter id="filter7_f_72_1000" x="45.2604" y="52.5358" width="10.2039" height="14.389" filterUnits="userSpaceOnUse" color-interpolation-filters="sRGB">
<feFlood flood-opacity="0" result="BackgroundImageFix"/>
<feBlend mode="normal" in="SourceGraphic" in2="BackgroundImageFix" result="shape"/>
<feGaussianBlur stdDeviation="0.112857" result="effect1_foregroundBlur_72_1000"/>
</filter>
<filter id="filter8_i_72_1000" x="56.5046" y="38.4567" width="14.4301" height="8.03138" filterUnits="userSpaceOnUse" color-interpolation-filters="sRGB">
<feFlood flood-opacity="0" result="BackgroundImageFix"/>
<feBlend mode="normal" in="SourceGraphic" in2="BackgroundImageFix" result="shape"/>
<feColorMatrix in="SourceAlpha" type="matrix" values="0 0 0 0 0 0 0 0 0 0 0 0 0 0 0 0 0 0 127 0" result="hardAlpha"/>
<feOffset dx="0.225713" dy="-0.361142"/>
<feGaussianBlur stdDeviation="0.270856"/>
<feComposite in2="hardAlpha" operator="arithmetic" k2="-1" k3="1"/>
<feColorMatrix type="matrix" values="0 0 0 0 0.47451 0 0 0 0 0.262745 0 0 0 0 0.168627 0 0 0 1 0"/>
<feBlend mode="normal" in2="shape" result="effect1_innerShadow_72_1000"/>
</filter>
<filter id="filter9_i_72_1000" x="29.7336" y="38.4595" width="14.4313" height="8.03251" filterUnits="userSpaceOnUse" color-interpolation-filters="sRGB">
<feFlood flood-opacity="0" result="BackgroundImageFix"/>
<feBlend mode="normal" in="SourceGraphic" in2="BackgroundImageFix" result="shape"/>
<feColorMatrix in="SourceAlpha" type="matrix" values="0 0 0 0 0 0 0 0 0 0 0 0 0 0 0 0 0 0 127 0" result="hardAlpha"/>
<feOffset dx="0.225713" dy="-0.361142"/>
<feGaussianBlur stdDeviation="0.270856"/>
<feComposite in2="hardAlpha" operator="arithmetic" k2="-1" k3="1"/>
<feColorMatrix type="matrix" values="0 0 0 0 0.47451 0 0 0 0 0.262745 0 0 0 0 0.168627 0 0 0 1 0"/>
<feBlend mode="normal" in2="shape" result="effect1_innerShadow_72_1000"/>
</filter>
<filter id="filter10_f_72_1000" x="58.3016" y="50.312" width="3.23062" height="2.75707" filterUnits="userSpaceOnUse" color-interpolation-filters="sRGB">
<feFlood flood-opacity="0" result="BackgroundImageFix"/>
<feBlend mode="normal" in="SourceGraphic" in2="BackgroundImageFix" result="shape"/>
<feGaussianBlur stdDeviation="0.0451427" result="effect1_foregroundBlur_72_1000"/>
</filter>
<filter id="filter11_f_72_1000" x="63.097" y="51.1306" width="2.91461" height="3.0289" filterUnits="userSpaceOnUse" color-interpolation-filters="sRGB">
<feFlood flood-opacity="0" result="BackgroundImageFix"/>
<feBlend mode="normal" in="SourceGraphic" in2="BackgroundImageFix" result="shape"/>
<feGaussianBlur stdDeviation="0.0902854" result="effect1_foregroundBlur_72_1000"/>
</filter>
<filter id="filter12_f_72_1000" x="40.0074" y="50.7989" width="3.40802" height="3.68957" filterUnits="userSpaceOnUse" color-interpolation-filters="sRGB">
<feFlood flood-opacity="0" result="BackgroundImageFix"/>
<feBlend mode="normal" in="SourceGraphic" in2="BackgroundImageFix" result="shape"/>
<feGaussianBlur stdDeviation="0.0902854" result="effect1_foregroundBlur_72_1000"/>
</filter>
<filter id="filter13_f_72_1000" x="35.6526" y="50.2665" width="3.88492" height="2.80308" filterUnits="userSpaceOnUse" color-interpolation-filters="sRGB">
<feFlood flood-opacity="0" result="BackgroundImageFix"/>
<feBlend mode="normal" in="SourceGraphic" in2="BackgroundImageFix" result="shape"/>
<feGaussianBlur stdDeviation="0.0451427" result="effect1_foregroundBlur_72_1000"/>
</filter>
<filter id="filter14_f_72_1000" x="58.3157" y="39.9719" width="10.969" height="3.59501" filterUnits="userSpaceOnUse" color-interpolation-filters="sRGB">
<feFlood flood-opacity="0" result="BackgroundImageFix"/>
<feBlend mode="normal" in="SourceGraphic" in2="BackgroundImageFix" result="shape"/>
<feGaussianBlur stdDeviation="0.225713" result="effect1_foregroundBlur_72_1000"/>
</filter>
<filter id="filter15_f_72_1000" x="31.1836" y="40.3019" width="11.3704" height="3.89217" filterUnits="userSpaceOnUse" color-interpolation-filters="sRGB">
<feFlood flood-opacity="0" result="BackgroundImageFix"/>
<feBlend mode="normal" in="SourceGraphic" in2="BackgroundImageFix" result="shape"/>
<feGaussianBlur stdDeviation="0.225713" result="effect1_foregroundBlur_72_1000"/>
</filter>
<radialGradient id="paint0_radial_72_1000" cx="0" cy="0" r="1" gradientUnits="userSpaceOnUse" gradientTransform="translate(17 55.7129) scale(9.12267 15.9647)">
<stop offset="0.351" stop-color="#C28775"/>
<stop offset="1" stop-color="#BA7867"/>
</radialGradient>
<linearGradient id="paint1_linear_72_1000" x1="25.6779" y1="57.1597" x2="22.3495" y2="57.1597" gradientUnits="userSpaceOnUse">
<stop stop-color="#AF6F5D"/>
<stop offset="1" stop-color="#B87862"/>
</linearGradient>
<linearGradient id="paint2_linear_72_1000" x1="80.781" y1="50.0372" x2="76.5242" y2="63.2227" gradientUnits="userSpaceOnUse">
<stop stop-color="#F5C8A5"/>
<stop offset="1" stop-color="#DCA189"/>
</linearGradient>
<radialGradient id="paint3_radial_72_1000" cx="0" cy="0" r="1" gradientUnits="userSpaceOnUse" gradientTransform="translate(77.0678 54.3358) rotate(-36.0599) scale(5.31621 6.06778)">
<stop offset="0.543" stop-color="#E3AB88"/>
<stop offset="1" stop-color="#E3AB88" stop-opacity="0"/>
</radialGradient>
<radialGradient id="paint4_radial_72_1000" cx="0" cy="0" r="1" gradientUnits="userSpaceOnUse" gradientTransform="translate(74.9186 59.9807) rotate(-61.4674) scale(8.93805 5.23145)">
<stop offset="0.69" stop-color="#D79A76" stop-opacity="0"/>
<stop offset="1" stop-color="#D79A76"/>
</radialGradient>
<radialGradient id="paint5_radial_72_1000" cx="0" cy="0" r="1" gradientUnits="userSpaceOnUse" gradientTransform="translate(75.1345 55.7117) rotate(44.708) scale(1.89659 2.44495)">
<stop stop-color="#CB8E6D"/>
<stop offset="1" stop-color="#CB8E6D" stop-opacity="0"/>
</radialGradient>
<linearGradient id="paint6_linear_72_1000" x1="71.3417" y1="57.7367" x2="31.6402" y2="63.6521" gradientUnits="userSpaceOnUse">
<stop stop-color="#FAC39E"/>
<stop offset="1" stop-color="#C9917C"/>
</linearGradient>
<radialGradient id="paint7_radial_72_1000" cx="0" cy="0" r="1" gradientUnits="userSpaceOnUse" gradientTransform="translate(54.5147 48.0258) rotate(97.214) scale(44.4577 60.3492)">
<stop offset="0.701" stop-color="#B57195" stop-opacity="0"/>
<stop offset="1" stop-color="#B57195"/>
</radialGradient>
<linearGradient id="paint8_linear_72_1000" x1="22.31" y1="71.7529" x2="34.3303" y2="70.1835" gradientUnits="userSpaceOnUse">
<stop stop-color="#D99E84"/>
<stop offset="1" stop-color="#D99E84" stop-opacity="0"/>
</linearGradient>
<radialGradient id="paint9_radial_72_1000" cx="0" cy="0" r="1" gradientUnits="userSpaceOnUse" gradientTransform="translate(62.555 49.1034) rotate(-90) scale(6.79485 8.3629)">
<stop stop-color="#E2A18C"/>
<stop offset="1" stop-color="#E2A18C" stop-opacity="0"/>
</radialGradient>
<radialGradient id="paint10_radial_72_1000" cx="0" cy="0" r="1" gradientUnits="userSpaceOnUse" gradientTransform="translate(38.8602 48.9278) rotate(-90) scale(7.23042 8.99167)">
<stop stop-color="#C2837A"/>
<stop offset="1" stop-color="#C2837A" stop-opacity="0"/>
</radialGradient>
<radialGradient id="paint11_radial_72_1000" cx="0" cy="0" r="1" gradientUnits="userSpaceOnUse" gradientTransform="translate(69.5551 15.6156) rotate(127.807) scale(29.1436 49.5616)">
<stop stop-color="#FFFFC2"/>
<stop offset="1" stop-color="#FFFFC2" stop-opacity="0"/>
</radialGradient>
<linearGradient id="paint12_linear_72_1000" x1="25.0896" y1="54.3218" x2="40.1763" y2="27.5243" gradientUnits="userSpaceOnUse">
<stop stop-color="#E8AD8E"/>
<stop offset="1" stop-color="#E8AD8E" stop-opacity="0"/>
</linearGradient>
<radialGradient id="paint13_radial_72_1000" cx="0" cy="0" r="1" gradientUnits="userSpaceOnUse" gradientTransform="translate(28.5658 37.7494) rotate(-92.0558) scale(9.68311 4.75558)">
<stop offset="0.227" stop-color="#EEC19C"/>
<stop offset="1" stop-color="#EEC19C" stop-opacity="0"/>
</radialGradient>
<radialGradient id="paint14_radial_72_1000" cx="0" cy="0" r="1" gradientUnits="userSpaceOnUse" gradientTransform="translate(72.3372 46.6782) rotate(-66.4) scale(11.1558 9.09841)">
<stop offset="0.479" stop-color="#E3AB85"/>
<stop offset="1" stop-color="#E3AB85" stop-opacity="0"/>
</radialGradient>
<radialGradient id="paint15_radial_72_1000" cx="0" cy="0" r="1" gradientUnits="userSpaceOnUse" gradientTransform="translate(46.3286 10.9992) rotate(51.1339) scale(8.22465 7.26181)">
<stop stop-color="#FBECAF"/>
<stop offset="1" stop-color="#FBECAF" stop-opacity="0"/>
</radialGradient>
<radialGradient id="paint16_radial_72_1000" cx="0" cy="0" r="1" gradientUnits="userSpaceOnUse" gradientTransform="translate(53.972 10.999) rotate(76.961) scale(4.17922 6.87068)">
<stop offset="0.208" stop-color="#E1D19F"/>
<stop offset="1" stop-color="#E1D19F" stop-opacity="0"/>
</radialGradient>
<radialGradient id="paint17_radial_72_1000" cx="0" cy="0" r="1" gradientUnits="userSpaceOnUse" gradientTransform="translate(27.7713 19.9838) rotate(51.044) scale(5.99867 13.4408)">
<stop stop-color="#DCC291"/>
<stop offset="1" stop-color="#DCC291" stop-opacity="0"/>
</radialGradient>
<linearGradient id="paint18_linear_72_1000" x1="45.8686" y1="61.1627" x2="50.7442" y2="61.1627" gradientUnits="userSpaceOnUse">
<stop stop-color="#CB9173"/>
<stop offset="1" stop-color="#CB9173" stop-opacity="0"/>
</linearGradient>
<linearGradient id="paint19_linear_72_1000" x1="55.2378" y1="62.8409" x2="49.9079" y2="62.7628" gradientUnits="userSpaceOnUse">
<stop stop-color="#FEC8A4"/>
<stop offset="1" stop-color="#FEC8A4" stop-opacity="0"/>
</linearGradient>
<linearGradient id="paint20_linear_72_1000" x1="51.3714" y1="66.6989" x2="51.3714" y2="63.719" gradientUnits="userSpaceOnUse">
<stop stop-color="#C98583"/>
<stop offset="1" stop-color="#C98583" stop-opacity="0"/>
</linearGradient>
<linearGradient id="paint21_linear_72_1000" x1="51.0146" y1="66.9164" x2="51.0146" y2="66.0466" gradientUnits="userSpaceOnUse">
<stop stop-color="#C27B77"/>
<stop offset="1" stop-color="#C27B77" stop-opacity="0"/>
</linearGradient>
<linearGradient id="paint22_linear_72_1000" x1="44.9686" y1="75.0953" x2="47.2322" y2="71.5216" gradientUnits="userSpaceOnUse">
<stop stop-color="#D79E8E"/>
<stop offset="0.663" stop-color="#D79E8E" stop-opacity="0"/>
</linearGradient>
<radialGradient id="paint23_radial_72_1000" cx="0" cy="0" r="1" gradientUnits="userSpaceOnUse" gradientTransform="translate(61.6886 53.9009) rotate(90) scale(4.69504 5.55548)">
<stop offset="0.75" stop-color="#925C51"/>
<stop offset="1" stop-color="#85534D"/>
</radialGradient>
<radialGradient id="paint24_radial_72_1000" cx="0" cy="0" r="1" gradientUnits="userSpaceOnUse" gradientTransform="translate(60.501 52.6014) rotate(-127.812) scale(1.96606 2.70682)">
<stop offset="0.766" stop-color="#FFE6E2" stop-opacity="0"/>
<stop offset="0.966" stop-color="#FFE6E2"/>
</radialGradient>
<linearGradient id="paint25_linear_72_1000" x1="65.7307" y1="52.4457" x2="64.0999" y2="53.4521" gradientUnits="userSpaceOnUse">
<stop stop-color="#B4948D"/>
<stop offset="1" stop-color="#B4948D" stop-opacity="0"/>
</linearGradient>
<radialGradient id="paint26_radial_72_1000" cx="0" cy="0" r="1" gradientUnits="userSpaceOnUse" gradientTransform="translate(39.0054 53.9009) rotate(90) scale(4.69529 5.55575)">
<stop offset="0.75" stop-color="#925C51"/>
<stop offset="1" stop-color="#85534D"/>
</radialGradient>
<linearGradient id="paint27_linear_72_1000" x1="42.8725" y1="52.4458" x2="41.2417" y2="53.4521" gradientUnits="userSpaceOnUse">
<stop stop-color="#B4948D"/>
<stop offset="1" stop-color="#B4948D" stop-opacity="0"/>
</linearGradient>
<radialGradient id="paint28_radial_72_1000" cx="0" cy="0" r="1" gradientUnits="userSpaceOnUse" gradientTransform="translate(38.2947 53.1497) rotate(-118.811) scale(2.56822 3.08711)">
<stop offset="0.766" stop-color="#FFE6E2" stop-opacity="0"/>
<stop offset="0.966" stop-color="#FFE6E2"/>
</radialGradient>
<linearGradient id="paint29_linear_72_1000" x1="65.8143" y1="41.3231" x2="63.6288" y2="36.8601" gradientUnits="userSpaceOnUse">
<stop stop-color="#A57146"/>
<stop offset="1" stop-color="#A57146" stop-opacity="0"/>
</linearGradient>
<linearGradient id="paint30_linear_72_1000" x1="38.2362" y1="40.6597" x2="32.0532" y2="38.0672" gradientUnits="userSpaceOnUse">
<stop stop-color="#A57146"/>
<stop offset="1" stop-color="#A57146" stop-opacity="0"/>
</linearGradient>
</defs>
</svg>
