<svg width="166" height="354" viewBox="0 0 166 354" fill="none" xmlns="http://www.w3.org/2000/svg">
<path d="M-103.965 641.393C-1.42515 467.922 -104.46 398.328 -49.3479 303.924C-48.3729 302.16 -47.3978 300.395 -46.3253 298.453C6.79269 196.96 158.843 230.978 229.119 61.3348" fill="url(#paint0_linear_72_984)"/>
<path d="M-117.386 633.29C-40.2681 515.074 -50.9183 468.466 -41.5471 404.851C-34.7882 358.429 -12.8347 314.419 19.6202 279.892C93.3347 201.669 163.572 172.832 185.597 37.5219L303.011 102.391L-20.0213 687.083L-117.386 633.29Z" fill="url(#paint1_linear_72_984)"/>
<path d="M-122.518 630.455C-121.659 549.483 -41.7189 489.194 40.366 361.987C43.8373 356.773 47.1044 351.215 50.07 345.491C101.991 245.104 86.866 121.48 163.13 25.1087" stroke="#DBDAFF" stroke-miterlimit="10"/>
<path d="M-103.826 640.782C-1.41072 467.519 -104.386 398.202 -49.2441 303.736C-48.2702 301.974 -47.2963 300.211 -46.2251 298.272C6.8296 196.901 158.658 230.857 228.855 61.4206" stroke="#4F53A6" stroke-miterlimit="10"/>
<path d="M-117.386 633.29C-40.268 515.074 -50.9183 468.466 -41.5471 404.851C-34.7882 358.429 -12.8347 314.419 19.6202 279.892C93.3347 201.669 163.572 172.832 185.598 37.5218" stroke="#0500FD" stroke-miterlimit="10"/>
<defs>
<linearGradient id="paint0_linear_72_984" x1="-17.2684" y1="307.316" x2="-43.3514" y2="292.905" gradientUnits="userSpaceOnUse">
<stop stop-color="#A3BCFF"/>
<stop offset="1" stop-color="#96C0FF"/>
</linearGradient>
<linearGradient id="paint1_linear_72_984" x1="139.02" y1="393.435" x2="-7.05238" y2="312.732" gradientUnits="userSpaceOnUse">
<stop stop-color="#0D51FF"/>
<stop offset="0.9999" stop-color="#8FAAFF"/>
<stop offset="1" stop-color="#5A7EFF"/>
</linearGradient>
</defs>
</svg>
