<svg width="83" height="8" viewBox="0 0 83 8" fill="none" xmlns="http://www.w3.org/2000/svg">
<path d="M0 4C0 1.79086 1.79086 0 4 0C6.20914 0 8 1.79086 8 4C8 6.20914 6.20914 8 4 8C1.79086 8 0 6.20914 0 4Z" fill="#5D5FEF"/>
<path d="M25 4C25 1.79086 26.7909 0 29 0C31.2091 0 33 1.79086 33 4C33 6.20914 31.2091 8 29 8C26.7909 8 25 6.20914 25 4Z" fill="#5D5FEF"/>
<path d="M58 4C58 6.20914 56.2091 8 54 8C51.7909 8 50 6.20914 50 4C50 1.79086 51.7909 0 54 0C56.2091 0 58 1.79086 58 4Z" fill="#D9D9D9"/>
<path d="M83 4C83 6.20914 81.2091 8 79 8C76.7909 8 75 6.20914 75 4C75 1.79086 76.7909 0 79 0C81.2091 0 83 1.79086 83 4Z" fill="#D9D9D9"/>
</svg>
