<svg width="35" height="30" viewBox="0 0 35 30" fill="none" xmlns="http://www.w3.org/2000/svg">
<path d="M11.6667 7.5L30.6251 7.5" stroke="#121219" stroke-width="1.5" stroke-linecap="round"/>
<path d="M11.6667 15L30.6251 15" stroke="#121219" stroke-width="1.5" stroke-linecap="round"/>
<path d="M11.6667 22.5L30.6251 22.5" stroke="#121219" stroke-width="1.5" stroke-linecap="round"/>
<path d="M4.73966 16.5625C5.74643 16.5625 6.56258 15.8629 6.56258 15C6.56258 14.1371 5.74643 13.4375 4.73966 13.4375C3.7329 13.4375 2.91675 14.1371 2.91675 15C2.91675 15.8629 3.7329 16.5625 4.73966 16.5625Z" fill="#121219"/>
<path d="M4.73966 9.0625C5.74643 9.0625 6.56258 8.36295 6.56258 7.5C6.56258 6.63706 5.74643 5.9375 4.73966 5.9375C3.7329 5.9375 2.91675 6.63706 2.91675 7.5C2.91675 8.36295 3.7329 9.0625 4.73966 9.0625Z" fill="#121219"/>
<path d="M4.73966 24.0625C5.74643 24.0625 6.56258 23.3629 6.56258 22.5C6.56258 21.6371 5.74643 20.9375 4.73966 20.9375C3.7329 20.9375 2.91675 21.6371 2.91675 22.5C2.91675 23.3629 3.7329 24.0625 4.73966 24.0625Z" fill="#121219"/>
</svg>
