<svg width="315" height="51" viewBox="0 0 315 51" fill="none" xmlns="http://www.w3.org/2000/svg">
<rect width="315" height="51" rx="25.5" fill="#5D5FEF"/>
<path d="M154.916 13.6738V19.7031H157.359V21.3027H154.916V29.582H152.965V13.6738H154.916ZM150.557 15.1855V16.7676H145.072V24.0625C147.542 24.0625 149.493 23.9395 151.682 23.5527L151.91 25.2051C149.449 25.627 147.305 25.6973 144.439 25.6973H143.121V15.1855H150.557ZM165.252 13.9902C168.768 13.9902 170.965 15.1504 170.982 17.084C170.965 18.9824 168.768 20.125 165.252 20.1074C161.771 20.125 159.521 18.9824 159.521 17.084C159.521 15.1504 161.771 13.9902 165.252 13.9902ZM165.252 15.5195C162.932 15.5195 161.543 16.0645 161.561 17.084C161.543 18.0508 162.932 18.5781 165.252 18.5957C167.572 18.5781 168.961 18.0508 168.961 17.084C168.961 16.0645 167.572 15.5195 165.252 15.5195ZM170.754 24.0273V29.3711H159.732V24.0273H170.754ZM161.666 25.5742V27.7891H168.855V25.5742H161.666ZM172.512 21.1797V22.7617H158.027V21.1797H172.512Z" fill="white"/>
</svg>
